<svg id="ll0CXAyTW" viewBox="0 0 312.5 308.60782283369844" height="308.60782283369844" width="312.5" style="width: 312.5px; height: 308.608px; position: absolute; top: 50%; left: 50%; z-index: 0; cursor: pointer; transform: translate(-50%, -50%) scale(0.691817);"><defs id="SvgjsDefs1132"></defs><g id="SvgjsG1133" featurekey="rootContainer" transform="matrix(2.8950081747227903,0,0,2.8950081747227903,-0.16083872809651176,0)" fill="#f5f5f5"><g xmlns="http://www.w3.org/2000/svg"><path d="M19.8 15.3h.5l-.4-.2zm.5.1zm.8-.7c0 .1 0 .1.1.1l.4-.3c-.2-.1-.3-.1-.5.2zm.4-.2zm-4.1 2.3zm-.2.6l.3-.2c.1-.1.1-.2.1-.2h-.2l-.2.4c-.1-.1-.1 0 0 0zm2.2-2.9h-.1l-.2.2h.3zm-2.1 2.4l.6-.5c.1-.1.1-.2.1-.3h-.3l-1.2 1.1-.2.4.7-.6zm-1.1.8z"></path><path d="M9.7 25v-.2a1.7 1.7 0 0 1 .7-1.1l.9-.6.5-.6.7-.7.4-.4.4-.3a1.9 1.9 0 0 0 .8-.9l.4-.5a5.9 5.9 0 0 0 1-1.3l.2-.3.3-.2-.2-.3.4-.5c.8-.6 1.4-1.4 2.2-2l.3-.3a1.4 1.4 0 0 1 .5-.6l.8-.4h.4a1.4 1.4 0 0 0 .7-.6V13a3.5 3.5 0 0 1 1.3-1.4l.8-.5.2-.2.4-.4 1-.5h.2l-1.1.4-1.4 1c-.6.5-1.4.6-1.8 1.4h.3c-.7.2-1.4.5-1.7 1.2s-.8.6-1.2.9a.4.4 0 0 0-.3.4c-.8-.1-1.1.5-1.5.9v.8a3.9 3.9 0 0 0-1.6 1.4c-1.6.1-1.6 2.1-3 2.5h-.1a.2.2 0 0 0 0 .2c-.3 0-.5.2-.4.5l-.2.5c-.7.4-.6 1.1-1 1.7-.8.5-1.1 1.5-1.7 2.2l.3.5.2-.2a11.6 11.6 0 0 1 .9-1.3zM53.9 3.3l.6.2h.2a2.2 2.2 0 0 0 1.4.2 4.1 4.1 0 0 1 1.9.1h1.2a1.4 1.4 0 0 1 1.2.3.1.1 0 0 1 0 .1H60a.1.1 0 0 0 0 .1h.7a1.8 1.8 0 0 1 1.3 0c.2 0 .1.1.2.2l.5.2h-.2c-.2-.4-.5-.4-.8-.4a9.7 9.7 0 0 0-4.3-.9h-.8A9.8 9.8 0 0 0 53 3h.2zm7.3 3.1zM50.3 4.7zm10.9 1.7h.2-.2zM19 14.7zm32.1-10zm17.6 2.2a.9.9 0 0 0 1 .2h.6a3.1 3.1 0 0 0-1.8-.7l-.7-.2.5.3zm-3.4-1.3c0 .1.1.2.2.3h.2l.5-.3a4.2 4.2 0 0 0-1.7-.6l.7.4zm7.4 2.7l.8.5c-.2-.3-.4-.5-.8-.5z"></path><path d="M99 76.1l.6-1.6.6-1.5c.2-.5.6-1.8.8-2.6a1.7 1.7 0 0 1 .3-.7h.1v-1.1c.5-.1.4-.6.5-.9l.8-4.7a12.7 12.7 0 0 0 0-6.2 1.9 1.9 0 0 0-.5-1.6v-4.3c-.3-.9.3-1.9-.4-2.7L101 45a.4.4 0 0 0 0-.2l-.2-.6a.5.5 0 0 1 0-.4h.1c.3 0 .3-.5.3-.9a3 3 0 0 0-.4-1.1l-.3-.4a1.1 1.1 0 0 1-.2-.7 6.7 6.7 0 0 0-.2-2v-.6c-.2-.7-.4-1.5-.6-2.2l-.2-.5a2.5 2.5 0 0 1-.4-1.1 2.5 2.5 0 0 0-.3-.8l-.6-1a.8.8 0 0 0-.6-.2h-.1V32h-.2v-.8H97V31a.4.4 0 0 0 0-.1v-.2c.1-.2.1-.3-.1-.5a1.8 1.8 0 0 1-.4-.6l-.2-.6a2.9 2.9 0 0 0-.7-1.2 2.2 2.2 0 0 1-.5-.7l-.7-1.6a4.3 4.3 0 0 0-.6-1l-.6-.8a2.4 2.4 0 0 1-.4-.8l-.2-.3a.6.6 0 0 1-.1-.5.5.5 0 0 0-.2-.4l-.4-.3v.2c.1.2 0 .3-.1.3h-.2l.3 1 .3.5.7.9h-.1l-.2-.2-.2-.2a1.3 1.3 0 0 0-1.2-1.1v-.7c-.3-1.2-1.6-1.3-2.2-2.1a1.5 1.5 0 0 0-1.1-.9l-.8-.9a11.3 11.3 0 0 0-3.1-3l-.8-.6-.4-.3c-.7-.7-1-1.8-2.2-1.8l-.8-.5-.9-.7a2.2 2.2 0 0 0-1.8-1.3 5.1 5.1 0 0 0-2.3-1.2l.2.2.5.4 1.3.7a8.5 8.5 0 0 1 2.1 1.6 6.8 6.8 0 0 0 1.5 1.1l.6.5c.1.1.2.2.1.3H81l-.9-.3a5.6 5.6 0 0 1-2-.8l-1.2-.6-1.3-.7h-.2c-.3-.1-.4-.4-.8-.5l-.8-.2-2.5-.5a2.6 2.6 0 0 1-.9-.7 1.7 1.7 0 0 1-.9-.3l-1-.4a18.1 18.1 0 0 1-2.8-.8l-.6-.2-1-.3h-.5l-.2-.3v-.1h-1.6l-.6-.5-.4.2-.4.2h-.2l-.9-.5c-.6.6-1.1-.2-1.6-.1l-1-.3a1.2 1.2 0 0 1-1.2 0h-1.2a.6.6 0 0 1-.5-.6l.3-.2h.6a.7.7 0 0 1 .1.3c0 .2.2.2.5.2h.2l-.4-.6a1.1 1.1 0 0 0-1-.2l-1 .3H53c.3.2.2.3.2.5h-1.6l-.4-.2-.8-.4h-.1l-.7-.2h-2.3l.4-.2.8-.2h.3l1.7-.3 1.1-.2.6-.2h-1.1a8.4 8.4 0 0 0-3.4 0h-1.3L43 3.6c-1.4.1-2.8 0-3.9 1.2-2.5-.4-4.7.7-6.9 1.8l-2.2.9a6.7 6.7 0 0 0-3.7 1.8h.3l.5-.3.8-.5 1.3-.6 1-.2a6 6 0 0 1 2-.9l.9-.3h.2c.1.2.5 0 .7 0h.2c.1 0 .1.1 0 .1l-.6.4 1-.3.8-.2-1.3.7-1.3.4a1 1 0 0 0-.6.5l-.3.5h.3l.4-.2a1.4 1.4 0 0 1 .9-.6l1.5-.5h.5a.1.1 0 0 1 .1.2c-.2.2-.6.3-.8.5h.2l-3.2.9-3.8 1.6a5.2 5.2 0 0 1-2.3 1.2 6.6 6.6 0 0 1-1.7 1.1l-.8.2a1.5 1.5 0 0 1-1.3.9l-.3.5a3.7 3.7 0 0 1-1.2 1.1h-.1v-.1l-.2.2-.2.2-1 .2h-.5l-.4.5c-.1.1-.1.2 0 .2h.1c-.6.6-1 1.4-1.8 1.7L15 19.9c-.6 1.2-1.8 1.6-2.6 2.6s-1.4 3.9-3.9 4.3l-.2-.3-.2.5a2.7 2.7 0 0 1-.4.8 16.9 16.9 0 0 0-1.2 2.1.8.8 0 0 0-.1.5 1.4 1.4 0 0 1-.2.8l-.5 1.1h.2c.3 0 .3.3.4.6l.8-1.1a2.2 2.2 0 0 1 .6-.7 2 2 0 0 0 .9-.9l.3-.3.4-.4.6-1.1h.2c.1.1.1.1.2 0l.2-.4h.5v.8l.5-.5a.5.5 0 0 0 0-.5.4.4 0 0 1 .1-.3 1.5 1.5 0 0 0 .3-.5 1.3 1.3 0 0 1 .8-.9l.3-.2.3-.3a2.4 2.4 0 0 0 .8-1l-.2-.3c0-.1.1-.3.2-.4h.5l.6-.8.6-.3h.2a48.8 48.8 0 0 0-5.5 7.2h-.1.1a48.4 48.4 0 0 0-5.3 11.2h-.5l-.5-.4c-.2-.2-.1-.7-.4-.9h.1c.3-.5-.1-1.2.3-1.7s.1-1.4-.9-1.2-1.5.5-1.3 1.5-1 1.8-1.1 2.9-.5.5-.3.9v3.9c.1.8-.5 1.8.8 2.1l1.3.9c.1.5-.5 1.6.9 1.3a49.2 49.2 0 0 0-.3 5c0 1.1.1 2.2.1 3.3v-.4c-.1-.4-.1-.8-.2-1.3l-.3.3v-.2h-.5c0 .5-.1.8-.4.9a.9.9 0 0 0-.1.5c0 .1.1.3.2.2s.4.2.7.4-.2.3-.4.2-.2.1-.2.3v.3l.5 1.5c0 .3-.1.6-.1.9a1.7 1.7 0 0 0 .2.8h-.3v-.3l-.7-.2v-.6a1.5 1.5 0 0 0 0-.5 14.6 14.6 0 0 1-.3-1.8 16.6 16.6 0 0 1-.2-3.5.9.9 0 0 1 .1-.5v.2a2.9 2.9 0 0 1 .1.5.8.8 0 0 0 .1.4c.1.2.2.4.4.4s.1-.1.1-.2a2.1 2.1 0 0 0-.1-.5 4.2 4.2 0 0 1-.3-1.3 1.5 1.5 0 0 0-.3-.7 1.6 1.6 0 0 1-.2-.9v-.8c0-.3.1-.6.1-.9a.5.5 0 0 0-.1-.4h-.1c-.8.4-.7.2-1 1.6V55c0 .7-.1 1.4 0 2.1a10.8 10.8 0 0 0 .2 2.3 1.8 1.8 0 0 1 0 .5 3.1 3.1 0 0 0 .1.9 5.9 5.9 0 0 1 .1 1.3 3.9 3.9 0 0 0 .2 1.7 1.2 1.2 0 0 1 0 .4 2.1 2.1 0 0 0 .1.8 4.9 4.9 0 0 1 .2.9 14 14 0 0 0 .5 2.2 5 5 0 0 1 .2 1 1.7 1.7 0 0 0 .3.7 2.9 2.9 0 0 1 .5 1.2 8.5 8.5 0 0 0 .3 1l.4 1.4a5.4 5.4 0 0 0 .6 1.5 8.5 8.5 0 0 1 .8 2.1l.2.5a2.1 2.1 0 0 1 .5 1 2.1 2.1 0 0 0 .4.8 1 1 0 0 1 .2.5c.1.3.2.4.4.3h.1v.9l.5 1 .5 1 1.1 1.2.4.4c.3.3.7.5.9 1l.4.3a.7.7 0 0 1 .3.5l.2.7a3.3 3.3 0 0 0 .6.9l.4.2h.3a.2.2 0 0 1 .1.3 2.5 2.5 0 0 0 0 .5.9.9 0 0 0 .4.5h.2c.4-.1.8.2 1.2.7h.1c0-.1.1-.1 0-.2v-.2c0-.1.1-.2.2-.1a.7.7 0 0 1 .3.6v.2a4.3 4.3 0 0 0 .4 1.2c.5.3.5.3.5.1s0-.2.2-.2h.4l.2.3.8.5c.7.8 1.8.7 2.6 1.2l1.7 1.7h.2a2.9 2.9 0 0 0 1.6 1.6 1.3 1.3 0 0 0 1 .6c0 .5.6.6 1.1.7a1.2 1.2 0 0 0 .8.4h.2a1.7 1.7 0 0 0 1.5.5l.9.8 2.4.9v.2c.5 1.1 1.7.7 2.5 1l1.1.4h.4c1.2.3 2.4.9 3.7.5a.7.7 0 0 0 0 .4c1.1.7 2.4 0 3.6.4a2.9 2.9 0 0 0 1.7.1h.1l.8.2h.3l.9.2h.3a.5.5 0 0 1 .5 0 7.9 7.9 0 0 0 1.5.4h.6a.7.7 0 0 1 .7 0h3.9a5 5 0 0 0 1.6-.1h1l.5-.2H60l.6-.2.5-.3h2.2v.6H62l-1.2.2c-.4.1-.7 0-1 .1a2.4 2.4 0 0 1-1 .2l-1.3.3h-.4a3.1 3.1 0 0 0-1.5.1h-1.8a1.1 1.1 0 0 1-.9 0h-4.5a1.3 1.3 0 0 0-1.1.3H47l-.3-.2v-.3h-1.2a4.1 4.1 0 0 0-1.3-.3h-2.5l-.7-.2-.5-.2-2.1-.4h-.5l-.5-.2-2.1-.7-1.4-.4h-2.2c-.1 0-.1.1-.1.2h.2c1.3.5 2.6.9 3.9 1.5h.3l.9.2 1.4.4h1.3l.6.2.7.3 1.7.3 1.1.2 1.1.2h.8l.8.2h3.1l1 .2h2.3l1-.2H56c.4 0 .6-.1.7-.3h1a1 1 0 0 0 .8-.3c-.1.1 0 .1.1.2h.4v-.2c0-.1 0-.1.2-.2s.6-.1.7.1h.4l.3-.2c.2 0 .2 0 .2.1h.7l.5-.2.8-.4c.1.3.4.4 1.3.2l1.3-.4h1.2c.9-.1 2 0 2.7-.7h.2l.4-.3 1.1-.3a6.1 6.1 0 0 0 2-.8l.4-.2h.1l.9-.6.4-.2.5-.2h.4c.4-.1.4-.1.5-.4s0-.1-.2-.1h-.1l.4-.5h.2c.3-.1.5-.2.7-.1h.2a1.3 1.3 0 0 0 .9-.9c.3-.4 1.1-.2 1.3-.8l4.3-3.1c1.1-.1 1.4-1.1 2.2-1.7s2.3-1.1 3-2.2l.9-.4h.1a1 1 0 0 0 1.2-.7v.4c.8-.4 1.8.3 2.6-.5s0-2.7 1-3.8l.7-.5a12.1 12.1 0 0 0 1.5-4.2l.2-.2c0-.3 0-.7.4-.9a.9.9 0 0 0 .2-1.2h-.2a.3.3 0 0 0 0-.3c.7 0 .8-.7 1.2-1V77a.5.5 0 0 1 0-.2 3.8 3.8 0 0 0 .1-.7zM5.9 32.2z"></path><path d="M26.4 9.3l-.3.2-.4.3.5-.2zm6.1-2h.1l.3-.2h-.4zm-2.6 1l-.1.1h.1v-.1zm-1.5 1.4zm1.3-.2zm-6.3 3.1zM9.2 26.2l-.4.4H9a.4.4 0 0 0 .2-.4zm3-3.5a2.1 2.1 0 0 0 .3-.6 1.5 1.5 0 0 0-.5.5c-.1.1-.1.2 0 .2zM11 24.2V24c-.2 0-.5.3-.8.3v.2c.3.3.4.2.8-.3zm3 66.2zM73.9 9.2h.1l-.5-.3zm-2.5-1.4c.5-.1.8.4 1.2.5h.1l-.3-.2-1-.5-1.1-.5.3.2zM52.8 3.1zm11.7 2h-.1l-1.2-.2h.5zm2 .7l1.3.4a3.3 3.3 0 0 0-1.3-.4zm-9 0a1 1 0 0 0 .2-.5h-.5l-.3.3.4.3zm9 1.6zM49.9 4.2zm2.9.7zM48.5 4zm13.8 2.1a.5.5 0 0 0 0 .1zm44.8 52.3h-.3V58h.3c.1 0 .2-.3.1-.4s-.1-.7-.3-.8a.3.3 0 0 1-.2-.3l.2-.4a.4.4 0 0 0 0-.2h-.2l-.2-.3c-.1.3-.2.6-.4.7a.5.5 0 0 0 0 .2c0 .1 0 .2-.1.2h-.1a1.1 1.1 0 0 1-.1.3 2.3 2.3 0 0 0-.4.9.4.4 0 0 0 .1.4h.1a1.7 1.7 0 0 0-.1.8v.4a1.8 1.8 0 0 1-.1.5h-.1l-.4.7v.6a1.5 1.5 0 0 1-.3 1.1h-.2l-.2-.2a.9.9 0 0 1-.1-.8 6.5 6.5 0 0 0 .1-1.7c0-.1-.1-.2-.1-.2a.5.5 0 0 0-.1.3v.6c0 .2-.1.6-.3.7s-.1.2-.1.3l-.2.6.3.5c-.2.2-.4.1-.5-.1v1h.3v.4a4.2 4.2 0 0 0-.3 1.4 3.3 3.3 0 0 0 0 .4 4 4 0 0 1-.2 1.3 2 2 0 0 0 0 .6l-.3.7a3.2 3.2 0 0 1-.3.7l-.3.6-.9 2.7c.3.9-.4 1.5-.8 2.1a2.7 2.7 0 0 1-.8 2.3v.4c0 .1.1.2.3.1l.4-.3.2-.4h.2c.1.1.2.1.4-.1h.2a.5.5 0 0 1 .1.6 2.9 2.9 0 0 0-.1.8c0 .1 0 .2.1.2h.2c.1.1.2 0 .3-.3l.2-.5h.3c.4-.1.4-.1.6-.6l.5-.9.3-.6.4-1a1.6 1.6 0 0 1 .3-1 .6.6 0 0 0 .1-.6c0-.2 0-.3.2-.6l.3-.4.5-1a4.7 4.7 0 0 1 .2-.9 3 3 0 0 0 .3-1.3 3.8 3.8 0 0 1 .3-.9v-.5c-.1-.2-.1-.2 0-.6s.1-.2.2-.2a.4.4 0 0 1 .1.3l.2-.5a2.3 2.3 0 0 0 .2-.9v-.3c0-.1 0-.3-.1-.3v.4c-.2 0-.3.2-.5.3a6.4 6.4 0 0 0 .1-.8l.4-.2a.7.7 0 0 0 .2-.6 1.4 1.4 0 0 1 0-.3 4.8 4.8 0 0 0 .2-1.4v-.2l.3-1h.1a.3.3 0 0 0 .1-.3h-.1a.9.9 0 0 1 .2-.8 1.5 1.5 0 0 0-.9-1zm-1.2 7.8zm-.2-9.9zm0 0zM9.1 30.8a.3.3 0 0 0 0-.2l-.2-.2-.2.2-.3.6c0 .3-.3.6-.3.9v.2h.1zm96.3 24.8h.1a1.7 1.7 0 0 0 .2-1.2.5.5 0 0 1 .2-.5h.1v-.2l-.2-.2h-.1c-.1.1-.2.3-.3.3s-.1.1-.1.3v.3a2.2 2.2 0 0 0 .1 1.2zM13.2 90.1c-.1 0 0 .2 0 .3l.8.8h.1c-.2-.3-.3-.6-.2-.7a.9.9 0 0 1-.5-.2zm.8.3zm92.3-35.7h.1a2 2 0 0 0 0-.6c-.3.1-.3.1-.3.6s.1.1.2 0z"></path><path d="M106.7 62a.6.6 0 0 0 .1-.5c0-.1-.1-.2-.1-.1h-.2v.2c0 .4.1.5.2.4zm.1-8.2h-.1v.6a1 1 0 0 0 .1-.6zM17.1 92.6h-.2v.2l.2.2h.2v-.2zm86.6-33.3c0-.1 0-.1-.1-.1zM9.9 86.5l.5.5-.4-.6z"></path><circle cx="10.5" cy="87.1" transform="rotate(-24.8 10.4 87.159)"></circle><path d="M9.7 30.1h-.1v.2-.2h.1zm83.2-6.6l-.2-.3h-.1zm-14.7 77.1zM5.9 32.2zm-.1.2a.3.3 0 0 0 .1-.2v.2zm1.9-4.9zM61.5 2.4zm42.8 58.2v.1-.1zM16.4 92.5h-.1c.1.1.2 0 .1-.1zm.2.7h.1l-.1-.1v.1zm73.9-71.3zm15.2 34.4zM14.6 91.7zm92.1-37zm-.8 11.4zM34.6 0z"></path></g></g><g id="SvgjsG1134" featurekey="symbolFeature-0" transform="matrix(0.24767801857585142,0,0,0.24767801857585142,116,89)" fill="#364f6b"><defs xmlns="http://www.w3.org/2000/svg"></defs><g xmlns="http://www.w3.org/2000/svg"><path class="fil0" d="M70 0l50 0 5 0 0 5 -2 28 193 0 7 0 -3 7 -41 108 -1 3 -4 0 -165 0 -5 0 0 -5 11 -136 -45 0 0 -10zm52 43l-8 98 157 0 37 -98 -186 0z" style="fill: #364f6b; fill-rule: nonzero;"></path><polygon class="fil0" points="27,50 89,50 89,60 27,60 " style="fill: #364f6b; fill-rule: nonzero;"></polygon><polygon class="fil0" points="0,88 137,88 137,98 0,98 " style="fill: #364f6b; fill-rule: nonzero;"></polygon><polygon class="fil0" points="50,129 110,129 110,139 50,139 " style="fill: #364f6b; fill-rule: nonzero;"></polygon><path class="fil0" d="M250 170c11,0 19,8 21,20 1,15 -8,32 -22,38 -14,6 -31,-2 -32,-18 0,-11 4,-23 11,-30l-87 0c2,3 3,6 4,10 1,15 -8,32 -22,38 -15,6 -30,-2 -32,-18 -1,-15 8,-32 22,-38 3,-1 6,-2 9,-2l128 0zm-133 11c-10,4 -17,17 -16,28 1,9 9,14 18,10 10,-5 17,-17 16,-28 -1,-10 -9,-14 -18,-10zm126 0c-10,4 -17,17 -16,28 1,9 9,14 18,10 10,-5 17,-17 16,-28 -2,-10 -10,-14 -18,-10z" style="fill: #364f6b; fill-rule: nonzero;"></path></g></g><g id="SvgjsG1135" featurekey="nameFeature-0" transform="matrix(1.0498365597540278,0,0,1.0498365597540278,55.03404590960458,155.83758578600498)" fill="#364f6b"><path d="M17.24 10.120000000000001 c0.56 0 0.9534 0.093164 1.1801 0.27984 s0.34 0.62668 0.34 1.32 l0 2.8 l0 2 l-2.32 0 c-0.69332 0 -1.2133 -0.32 -1.56 -0.96 c-0.13332 -0.29332 -0.26 -0.49332 -0.38 -0.6 s-0.40668 -0.16 -0.86 -0.16 l-0.52 0 c-0.34668 0 -0.52 0.22668 -0.52 0.68 l-0.08 19.36 c0 0.26668 0.05332 0.45336 0.16 0.56004 s0.22668 0.21336 0.36 0.32004 c0.18668 0.13332 0.37336 0.34 0.56004 0.62 s0.28 0.66 0.28 1.14 l0 2.56 l-8.16 0 l0 -2.56 c0 -0.45332 0.1 -0.82664 0.3 -1.12 s0.40668 -0.50664 0.62 -0.63996 c0.13332 -0.10668 0.24 -0.22668 0.32 -0.36 s0.12 -0.30664 0.12 -0.51996 l0 -19.48 c0 -0.18668 -0.08 -0.32668 -0.24 -0.42 s-0.30668 -0.14 -0.44 -0.14 l-0.4 0 c-0.16 0 -0.35332 0.04 -0.58 0.12 s-0.42 0.29332 -0.58 0.64 c-0.18668 0.37332 -0.39336 0.62664 -0.62004 0.75996 s-0.63336 0.2 -1.22 0.2 l-2.08 0 l0 -2.2 l0 -2.6 c0 -0.61332 0.14668 -1.0333 0.44 -1.26 s0.66664 -0.34 1.12 -0.34 l14.76 0 l0 0 z M30.553999999999995 40.28 c-2.48 0 -4.44 -0.55332 -5.88 -1.66 s-2.16 -2.6867 -2.16 -4.74 l0 -17.76 c0 -2.0533 0.71332 -3.64 2.14 -4.76 s3.3934 -1.68 5.9 -1.68 c2.5333 0 4.4868 0.56 5.86 1.68 s2.06 2.7067 2.06 4.76 l0 17.76 c0 2.0533 -0.69332 3.6333 -2.08 4.74 s-3.3334 1.66 -5.84 1.66 z M32.913999999999994 16.6 c0 -0.48 -0.09328 -0.86672 -0.27996 -1.16 s-0.40668 -0.52 -0.66 -0.68 s-0.51332 -0.27332 -0.78 -0.34 s-0.48 -0.1 -0.64 -0.1 s-0.37332 0.02668 -0.64 0.08 s-0.53336 0.15332 -0.80004 0.3 s-0.5 0.35336 -0.7 0.62004 s-0.3 0.62668 -0.3 1.08 l0 17.12 c0 0.4 0.08 0.73332 0.24 1 s0.36 0.48 0.6 0.64 s0.50668 0.28 0.8 0.36 s0.56 0.12 0.8 0.12 c0.56 0 1.0933 -0.16 1.6 -0.48 s0.76 -0.88 0.76 -1.68 l0 -16.88 z M59.948 35.480000000000004 c0.29332 0.13332 0.5268 0.3 0.70012 0.5 s0.26 0.60668 0.26 1.22 l0 2.8 l-1.28 0 l-2.72 0 l-0.44 0 c-0.66668 0 -1.16 -0.12668 -1.48 -0.38 s-0.66668 -0.79332 -1.04 -1.62 l-4.04 -9.52 l-1.12 2.04 l0 4.28 c0 0.26668 0.04 0.45336 0.12 0.56004 s0.17332 0.21336 0.28 0.32004 c0.21332 0.16 0.42664 0.38668 0.63996 0.68 s0.32 0.66664 0.32 1.12 l0 2.52 l-0.28 0 l-7.84 0 l0 -2.12 l0 -0.4 c0 -0.45332 0.10668 -0.82664 0.32 -1.12 s0.42664 -0.52 0.63996 -0.68 c0.13332 -0.10668 0.23332 -0.21336 0.3 -0.32004 s0.1 -0.29336 0.1 -0.56004 l0 -1.32 l0 -18.2 c0 -0.29332 -0.03332 -0.49332 -0.1 -0.6 s-0.16668 -0.2 -0.3 -0.28 c-0.21332 -0.16 -0.42664 -0.38668 -0.63996 -0.68 s-0.32 -0.66664 -0.32 -1.12 l0 -0.4 l0 -2.08 l0 -0.04 l8.12 0 l0 2.52 c0 0.45332 -0.10668 0.82664 -0.32 1.12 s-0.42664 0.52 -0.63996 0.68 c-0.10668 0.08 -0.2 0.17332 -0.28 0.28 s-0.12 0.30668 -0.12 0.6 l0 5.56 l5.4 -9.68 c0.16 -0.18668 0.33332 -0.36 0.52 -0.52 c0.16 -0.13332 0.36 -0.26 0.6 -0.38 s0.52 -0.18 0.84 -0.18 l3.4 0 l0 2.52 c0 1.0933 -0.29332 1.76 -0.88 2 c-0.24 0.10668 -0.46 0.22 -0.66 0.34 s-0.34 0.27332 -0.42 0.46 c-0.05332 0.10668 -0.27332 0.49336 -0.66 1.16 s-0.81336 1.42 -1.28 2.26 s-0.91336 1.6533 -1.34 2.44 s-0.72 1.34 -0.88 1.66 c-0.05332 0.13332 -0.07332 0.25332 -0.06 0.36 s0.04664 0.26668 0.09996 0.48 l4.24 10.24 c0.13332 0.29332 0.3 0.52664 0.5 0.69996 s0.40668 0.31332 0.62 0.42 s0.42 0.18 0.62 0.22 s0.36668 0.08668 0.5 0.14 z M72.102 40.28 c-2.48 0 -4.44 -0.55332 -5.88 -1.66 s-2.16 -2.6867 -2.16 -4.74 l0 -17.76 c0 -2.0533 0.71332 -3.64 2.14 -4.76 s3.3934 -1.68 5.9 -1.68 c2.5333 0 4.4868 0.56 5.86 1.68 s2.06 2.7067 2.06 4.76 l0 17.76 c0 2.0533 -0.69332 3.6333 -2.08 4.74 s-3.3334 1.66 -5.84 1.66 z M74.462 16.6 c0 -0.48 -0.09328 -0.86672 -0.27996 -1.16 s-0.40668 -0.52 -0.66 -0.68 s-0.51332 -0.27332 -0.78 -0.34 s-0.48 -0.1 -0.64 -0.1 s-0.37332 0.02668 -0.64 0.08 s-0.53336 0.15332 -0.80004 0.3 s-0.5 0.35336 -0.7 0.62004 s-0.3 0.62668 -0.3 1.08 l0 17.12 c0 0.4 0.08 0.73332 0.24 1 s0.36 0.48 0.6 0.64 s0.50668 0.28 0.8 0.36 s0.56 0.12 0.8 0.12 c0.56 0 1.0933 -0.16 1.6 -0.48 s0.76 -0.88 0.76 -1.68 l0 -16.88 z M94.936 10.079999999999998 c0.90668 0 1.6868 0.19984 2.3401 0.59984 s1.1933 0.9 1.62 1.5 s0.74 1.26 0.94 1.98 s0.3 1.3867 0.3 2 l0 5.4 c0 0.98668 -0.12668 1.8934 -0.38 2.72 s-0.64664 1.54 -1.18 2.14 s-1.2133 1.0667 -2.04 1.4 s-1.8134 0.5 -2.96 0.5 l-2.44 0 c-0.4 0 -0.6 0.16 -0.6 0.48 l0 6.04 c0 0.26668 0.04 0.45336 0.12 0.56004 s0.17332 0.21336 0.28 0.32004 c0.21332 0.16 0.42664 0.38668 0.63996 0.68 s0.32 0.66664 0.32 1.12 l0 2.52 l-8.2 0 l0 -2.52 c0 -0.45332 0.10668 -0.82664 0.32 -1.12 s0.42664 -0.52 0.63996 -0.68 c0.10668 -0.08 0.2 -0.17332 0.28 -0.28 s0.12 -0.28 0.12 -0.52 l0 -19.64 c0 -0.21332 -0.0066796 -0.38664 -0.02 -0.51996 s-0.1 -0.25332 -0.26 -0.36 c-0.26668 -0.13332 -0.53336 -0.36 -0.80004 -0.68 s-0.4 -0.76 -0.4 -1.32 l0 -2.32 l11.36 0 z M94.696 17.04 c0 -0.93332 -0.22664 -1.5468 -0.67996 -1.8401 s-0.97332 -0.44 -1.56 -0.44 l-0.92 0 c-0.45332 0.02668 -0.73332 0.11336 -0.84 0.26004 s-0.16 0.31336 -0.16 0.50004 l0 7.92 c0 0.16 0.04668 0.31332 0.14 0.46 s0.36664 0.23336 0.81996 0.26004 l0.92 0 c0.88 0 1.48 -0.27332 1.8 -0.82 s0.48 -1.2867 0.48 -2.22 l0 -4.08 z M118.85000000000001 35.44 c0.21332 0.13332 0.4134 0.3466 0.60008 0.63992 s0.28 0.66664 0.28 1.12 l0 2.8 l-8 0 l0 -2.32 c0 -0.48 0.09332 -0.92 0.28 -1.32 s0.38668 -0.66668 0.6 -0.8 c0.13332 -0.10668 0.24664 -0.21336 0.33996 -0.32004 s0.14 -0.28 0.14 -0.52 c-0.02668 -0.21332 -0.05336 -0.41332 -0.08004 -0.6 c-0.02668 -0.16 -0.06 -0.32668 -0.1 -0.5 s-0.07332 -0.32664 -0.1 -0.45996 c-0.05332 -0.21332 -0.14664 -0.35332 -0.27996 -0.42 s-0.30664 -0.1 -0.51996 -0.1 l-3.76 0 c-0.24 0 -0.40668 0.02 -0.5 0.06 s-0.16664 0.19332 -0.21996 0.46 c-0.02668 0.13332 -0.05336 0.28664 -0.08004 0.45996 s-0.06668 0.34 -0.12 0.5 c-0.05332 0.18668 -0.09332 0.38668 -0.12 0.6 c0 0.24 0.02668 0.41332 0.08 0.52 s0.14664 0.21336 0.27996 0.32004 c0.21332 0.13332 0.41332 0.40664 0.6 0.81996 s0.28 0.86 0.28 1.34 l0 2.28 l-7.88 0 l0 -2.8 c0 -0.45332 0.1 -0.82664 0.3 -1.12 s0.39332 -0.50664 0.58 -0.63996 c0.13332 -0.10668 0.25332 -0.22668 0.36 -0.36 s0.18668 -0.30664 0.24 -0.51996 c0.74668 -3.5467 1.4267 -6.7332 2.04 -9.56 c0.26668 -1.2 0.52 -2.3733 0.76 -3.52 s0.46 -2.1734 0.66 -3.08 s0.36 -1.64 0.48 -2.2 s0.18 -0.85332 0.18 -0.88 c0.05332 -0.21332 0.08 -0.40664 0.08 -0.57996 s-0.06668 -0.28664 -0.2 -0.33996 c-0.29332 -0.13332 -0.53332 -0.35332 -0.72 -0.66 s-0.28 -0.76668 -0.28 -1.38 l0 -2.28 l6.2 0 c0.61332 0 1.1 0.18668 1.46 0.56 s0.58 0.78664 0.66 1.24 c0 0.10668 0.07332 0.51336 0.22 1.22 s0.34 1.6 0.58 2.68 s0.50668 2.2933 0.8 3.64 s0.58664 2.7134 0.87996 4.1 c0.69332 3.2533 1.4933 6.9332 2.4 11.04 c0.08 0.34668 0.28 0.64 0.6 0.88 z M111.57000000000001 28.04 c0.18668 0 0.30676 -0.019922 0.36008 -0.059924 s0.06664 -0.14 0.039961 -0.3 c0 -0.05332 -0.04668 -0.33332 -0.14 -0.84 s-0.2 -1.12 -0.32 -1.84 s-0.25332 -1.5 -0.4 -2.34 s-0.28 -1.62 -0.4 -2.34 s-0.22668 -1.32 -0.32 -1.8 s-0.14 -0.73332 -0.14 -0.76 c0 -0.10668 -0.03332 -0.15336 -0.1 -0.14004 s-0.11336 0.04664 -0.14004 0.09996 c0 0.02668 -0.04 0.28668 -0.12 0.78 s-0.18668 1.1 -0.32 1.82 s-0.27332 1.4933 -0.42 2.32 s-0.28668 1.6067 -0.42 2.34 s-0.24664 1.3533 -0.33996 1.86 s-0.14 0.78668 -0.14 0.84 c-0.02668 0.16 -0.013359 0.26 0.039961 0.3 s0.17332 0.06 0.36 0.06 l2.92 0 z M140.404 35.480000000000004 c0.29332 0.13332 0.5268 0.3 0.70012 0.5 s0.26 0.60668 0.26 1.22 l0 2.8 l-1.28 0 l-2.72 0 l-0.44 0 c-0.66668 0 -1.16 -0.12668 -1.48 -0.38 s-0.66668 -0.79332 -1.04 -1.62 l-4.04 -9.52 l-1.12 2.04 l0 4.28 c0 0.26668 0.04 0.45336 0.12 0.56004 s0.17332 0.21336 0.28 0.32004 c0.21332 0.16 0.42664 0.38668 0.63996 0.68 s0.32 0.66664 0.32 1.12 l0 2.52 l-0.28 0 l-7.84 0 l0 -2.12 l0 -0.4 c0 -0.45332 0.10668 -0.82664 0.32 -1.12 s0.42664 -0.52 0.63996 -0.68 c0.13332 -0.10668 0.23332 -0.21336 0.3 -0.32004 s0.1 -0.29336 0.1 -0.56004 l0 -1.32 l0 -18.2 c0 -0.29332 -0.03332 -0.49332 -0.1 -0.6 s-0.16668 -0.2 -0.3 -0.28 c-0.21332 -0.16 -0.42664 -0.38668 -0.63996 -0.68 s-0.32 -0.66664 -0.32 -1.12 l0 -0.4 l0 -2.08 l0 -0.04 l8.12 0 l0 2.52 c0 0.45332 -0.10668 0.82664 -0.32 1.12 s-0.42664 0.52 -0.63996 0.68 c-0.10668 0.08 -0.2 0.17332 -0.28 0.28 s-0.12 0.30668 -0.12 0.6 l0 5.56 l5.4 -9.68 c0.16 -0.18668 0.33332 -0.36 0.52 -0.52 c0.16 -0.13332 0.36 -0.26 0.6 -0.38 s0.52 -0.18 0.84 -0.18 l3.4 0 l0 2.52 c0 1.0933 -0.29332 1.76 -0.88 2 c-0.24 0.10668 -0.46 0.22 -0.66 0.34 s-0.34 0.27332 -0.42 0.46 c-0.05332 0.10668 -0.27332 0.49336 -0.66 1.16 s-0.81336 1.42 -1.28 2.26 s-0.91336 1.6533 -1.34 2.44 s-0.72 1.34 -0.88 1.66 c-0.05332 0.13332 -0.07332 0.25332 -0.06 0.36 s0.04664 0.26668 0.09996 0.48 l4.24 10.24 c0.13332 0.29332 0.3 0.52664 0.5 0.69996 s0.40668 0.31332 0.62 0.42 s0.42 0.18 0.62 0.22 s0.36668 0.08668 0.5 0.14 z M151.638 14.719999999999999 c-0.13332 0 -0.25996 0.060116 -0.37996 0.18012 s-0.18 0.24668 -0.18 0.38 l0 6.64 c0 0.18668 0.06 0.32668 0.18 0.42 s0.26 0.14 0.42 0.14 l5.04 0 c0.13332 0 0.27332 0.04668 0.42 0.14 s0.22 0.24664 0.22 0.45996 l0 3.2 c0 0.37332 -0.2 0.56 -0.6 0.56 l-5.08 0 c-0.4 0 -0.6 0.17332 -0.6 0.52 l0 7.48 c0 0.16 0.06668 0.29332 0.2 0.4 s0.28 0.16 0.44 0.16 l3.2 0 c0.24 0 0.42668 -0.13332 0.56 -0.4 c0.05332 -0.13332 0.12 -0.29332 0.2 -0.48 s0.19332 -0.36 0.34 -0.52 s0.32668 -0.3 0.54 -0.42 s0.46664 -0.18 0.75996 -0.18 l2.48 0 l0 5.6 c0 0.29332 -0.14668 0.53332 -0.44 0.72 s-0.58664 0.28 -0.87996 0.28 l-2.6 0 l-9.16 0 l-2.4 0 l0 -2.4 c0 -0.58668 0.08 -1.0334 0.24 -1.34 s0.37332 -0.52668 0.64 -0.66 c0.32 -0.18668 0.48 -0.46668 0.48 -0.84 l0 -19.44 c0 -0.42668 -0.17332 -0.73336 -0.52 -0.92004 c-0.26668 -0.13332 -0.47336 -0.34 -0.62004 -0.62 s-0.22 -0.68668 -0.22 -1.22 l0 -2.52 l14.32 0 c0.32 0 0.59332 0.12 0.82 0.36 s0.34 0.46668 0.34 0.68 l0 5.28 l-2.36 0 c-0.53332 0 -0.96 -0.13332 -1.28 -0.4 s-0.54668 -0.52 -0.68 -0.76 c-0.18668 -0.32 -0.46668 -0.48 -0.84 -0.48 l-3 0 l0 0 z M173.11200000000002 10.120000000000001 c2.08 0 3.6933 0.58672 4.84 1.76 s1.72 2.76 1.72 4.76 l0 16.88 c0 2 -0.57332 3.5867 -1.72 4.76 s-2.76 1.76 -4.84 1.76 l-10.28 0 l0 -2.4 c0 -0.58668 0.07332 -1.0334 0.22 -1.34 s0.35336 -0.52668 0.62004 -0.66 c0.32 -0.18668 0.48 -0.46668 0.48 -0.84 l0 -19.36 c0 -0.42668 -0.17332 -0.73336 -0.52 -0.92004 c-0.53332 -0.29332 -0.8 -0.90664 -0.8 -1.84 l0 -2.56 l10.28 0 z M174.192 17.36 c0 -0.88 -0.19328 -1.52 -0.57996 -1.92 s-0.91336 -0.6 -1.58 -0.6 l-1.8 0 c-0.29332 0.02668 -0.46 0.12 -0.5 0.28 s-0.06 0.32 -0.06 0.48 l0 19.28 c0 0.13332 0.02 0.25332 0.06 0.36 s0.16668 0.17336 0.38 0.20004 l1.6 0 c0.85332 0 1.48 -0.13332 1.88 -0.4 s0.6 -0.70668 0.6 -1.32 l0 -16.36 z M190.06600000000003 34.8 c0 0.29332 0.04 0.49332 0.12 0.6 s0.17332 0.2 0.28 0.28 c0.21332 0.16 0.42664 0.38668 0.63996 0.68 s0.32 0.66664 0.32 1.12 l0 2.52 l-8.2 0 l0 -2.52 c0 -0.45332 0.10668 -0.82664 0.32 -1.12 s0.42664 -0.52 0.63996 -0.68 c0.13332 -0.08 0.23332 -0.17332 0.3 -0.28 s0.1 -0.30668 0.1 -0.6 l0 -19.48 l0 -0.04 c0 -0.26668 -0.03332 -0.45336 -0.1 -0.56004 s-0.16668 -0.21336 -0.3 -0.32004 c-0.21332 -0.16 -0.42664 -0.38668 -0.63996 -0.68 s-0.32 -0.66664 -0.32 -1.12 l0 -2.52 l8.2 0 l0 2.52 c0 0.45332 -0.10668 0.82664 -0.32 1.12 s-0.42664 0.52 -0.63996 0.68 c-0.10668 0.10668 -0.2 0.21336 -0.28 0.32004 s-0.12 0.29336 -0.12 0.56004 l0 0.04 l0 19.48 l0 0 z"></path></g><g id="SvgjsG1136" featurekey="sloganFeature-0" transform="matrix(0.8310824006229061,0,0,0.8310824006229061,75.16891764891346,202.0826941952567)" fill="#364f6b"><path d="M7.3 20 c-1.18 0 -2.26 -0.28 -3.22 -0.84 c-0.96 -0.58 -1.72 -1.36 -2.26 -2.34 s-0.82 -2.08 -0.82 -3.3 c0 -1.18 0.28 -2.28 0.84 -3.26 c0.56 -0.96 1.34 -1.74 2.3 -2.3 c0.98 -0.56 2.08 -0.84 3.24 -0.84 c0.88 0 1.74 0.2 2.58 0.56 c0.84 0.38 1.56 0.88 2.16 1.52 c0.08 0.1 0.08 0.24 0 0.34 l-1.9 1.56 c-0.06 0.06 -0.12 0.1 -0.2 0.1 s-0.16 -0.04 -0.2 -0.1 c-1.02 -1.24 -2.66 -1.5 -4.04 -0.64 c-1.2 0.74 -1.64 2.1 -1.58 3.46 c0.06 1.38 1.06 2.56 2.38 2.96 c1.2 0.36 2.38 0.08 3.24 -0.84 c0.06 -0.04 0.12 -0.08 0.2 -0.06 c0.08 0 0.14 0.02 0.18 0.08 l1.94 1.36 c0.08 0.1 0.08 0.24 0 0.34 c-0.64 0.68 -1.4 1.24 -2.24 1.64 c-0.86 0.4 -1.74 0.6 -2.6 0.6 z M13.46 20 c-0.08 0 -0.16 -0.04 -0.2 -0.12 c-0.06 -0.06 -0.06 -0.16 -0.04 -0.24 l4.66 -11.98 c0.04 -0.1 0.14 -0.16 0.24 -0.16 l2.68 0 c0.1 0 0.2 0.06 0.24 0.16 l4.58 11.98 c0.02 0.08 0.02 0.16 -0.04 0.24 c-0.04 0.08 -0.12 0.12 -0.2 0.12 l-2.78 0 c-0.1 0 -0.2 -0.06 -0.24 -0.16 l-0.74 -1.84 l-4.5 0.02 l-0.74 1.82 c-0.04 0.1 -0.14 0.16 -0.24 0.16 l-2.68 0 z M17.94 15.5 l2.88 0 l-1.44 -4.24 z M27.68 20 c-0.14 0 -0.24 -0.12 -0.24 -0.26 l0 -11.98 c0 -0.14 0.1 -0.26 0.24 -0.26 l4.9 0 c1.52 0 2.72 0.38 3.56 1.16 c1.24 1.12 1.66 3.24 1.06 4.8 c-0.22 0.56 -0.6 1.08 -1.08 1.46 c-1.62 1.26 -3.64 1.14 -5.58 1.14 l0 3.68 c0 0.14 -0.12 0.26 -0.26 0.26 l-2.6 0 z M30.54 13.280000000000001 c0 0 2.52 0.28 3.4 -0.3 c0.34 -0.22 0.54 -0.76 0.54 -1.16 c-0.02 -0.44 -0.24 -0.9 -0.6 -1.18 c-0.38 -0.32 -1.32 -0.42 -1.8 -0.42 l-1.54 0.04 l0 3.02 z M43.84 20.12 c-0.96 0 -1.92 -0.18 -2.84 -0.54 c-0.92 -0.34 -1.74 -0.84 -2.42 -1.44 c-0.08 -0.08 -0.1 -0.2 -0.06 -0.3 l0.7 -2.38 c0.04 -0.08 0.1 -0.14 0.18 -0.14 c0.08 -0.02 0.16 0 0.22 0.06 c1.06 1 2.26 1.9 3.76 1.98 c0.4 0.02 0.84 0.04 1.22 -0.08 c1.18 -0.38 0.68 -1.58 -0.2 -1.94 c-0.3 -0.12 -0.72 -0.26 -1.26 -0.42 c-0.8 -0.22 -1.46 -0.46 -1.96 -0.7 c-0.54 -0.24 -1 -0.62 -1.4 -1.12 c-0.38 -0.52 -0.58 -1.2 -0.58 -2.02 c0 -0.78 0.2 -1.46 0.6 -2.04 s0.96 -1.04 1.66 -1.34 s1.52 -0.46 2.44 -0.46 c0.82 0 1.62 0.12 2.42 0.38 c0.78 0.24 1.48 0.58 2.1 0.98 c0.1 0.08 0.14 0.2 0.08 0.32 l-0.66 2.24 c-0.02 0.08 -0.08 0.12 -0.16 0.14 c-0.06 0.02 -0.14 0.02 -0.2 -0.02 c-0.9 -0.56 -1.8 -1.24 -2.86 -1.38 c-0.7 -0.1 -1.76 -0.06 -2 0.78 c-0.3 1.08 1.28 1.36 2 1.58 c0.8 0.24 1.46 0.48 1.98 0.72 c0.54 0.26 1.02 0.66 1.4 1.16 c0.4 0.52 0.6 1.22 0.6 2.06 c0 0.82 -0.22 1.52 -0.64 2.12 c-0.4 0.6 -0.98 1.04 -1.7 1.36 c-0.72 0.28 -1.52 0.44 -2.42 0.44 z M53.84 20 c-0.14 0 -0.24 -0.12 -0.24 -0.26 l0 -9.44 l-2.74 0 c-0.14 0 -0.26 -0.1 -0.26 -0.24 l0 -2.3 c0 -0.14 0.12 -0.26 0.26 -0.26 l8.58 0 c0.16 0 0.26 0.12 0.26 0.26 l0 2.3 c0 0.14 -0.1 0.24 -0.26 0.24 l-2.74 0 l0 9.44 c0 0.14 -0.12 0.26 -0.26 0.26 l-2.6 0 z M67.34 20 c-1.2 0 -2.3 -0.28 -3.26 -0.84 c-0.98 -0.56 -1.76 -1.36 -2.34 -2.32 c-0.56 -0.98 -0.84 -2.1 -0.84 -3.3 c0 -1.18 0.28 -2.28 0.84 -3.26 c0.58 -0.98 1.34 -1.76 2.32 -2.32 s2.08 -0.84 3.28 -0.84 c1.18 0 2.28 0.28 3.26 0.84 s1.76 1.34 2.32 2.32 c0.58 0.98 0.86 2.08 0.86 3.26 c0 1.2 -0.28 2.3 -0.86 3.28 c-0.56 0.98 -1.34 1.76 -2.32 2.34 c-0.98 0.56 -2.08 0.84 -3.26 0.84 z M67.38000000000001 17.12 c0.58 0 1.12 -0.16 1.6 -0.46 c0.5 -0.32 0.9 -0.74 1.18 -1.3 c0.3 -0.54 0.44 -1.16 0.44 -1.82 c0 -0.64 -0.14 -1.26 -0.44 -1.8 c-0.28 -0.54 -0.68 -0.96 -1.18 -1.28 c-0.48 -0.3 -1.02 -0.46 -1.6 -0.46 c-0.6 0 -1.14 0.16 -1.64 0.46 c-0.52 0.32 -0.92 0.74 -1.22 1.28 c-0.3 0.56 -0.44 1.16 -0.44 1.8 c0 0.66 0.14 1.28 0.44 1.82 c0.32 0.54 0.72 0.98 1.22 1.28 c0.5 0.32 1.04 0.48 1.64 0.48 z M76.04 20 c-0.14 0 -0.26 -0.12 -0.26 -0.26 l0 -11.98 c0 -0.14 0.12 -0.26 0.26 -0.26 l2.36 0 c0.08 0 0.16 0.04 0.22 0.1 l4.6 7.1 l0 -6.94 c0 -0.14 0.12 -0.26 0.26 -0.26 l2.46 0 c0.14 0 0.26 0.12 0.26 0.26 l0 11.98 c0 0.14 -0.12 0.26 -0.26 0.26 l-2.36 0 c-0.08 0 -0.16 -0.04 -0.22 -0.1 l-4.58 -7.06 l0 6.9 c0 0.14 -0.12 0.26 -0.26 0.26 l-2.48 0 z M88.2 20 l0 -11.98 c0 -0.5 0.1 -0.6 0.26 -0.6 l8.76 0 c0.14 0 0.26 0.1 0.26 0.24 l0 2.26 c0 0.14 -0.12 0.26 -0.26 0.26 l-5.92 0 l0 2.08 l3.74 0 c0.14 0 0.26 0.12 0.26 0.26 l0 2.24 c0 0.14 -0.12 0.26 -0.26 0.26 l-3.74 0 l0 2.14 l5.9 0 c0.14 0 0.26 0.12 0.26 0.26 l0 2.24 c0 0.14 -0.12 0.26 -0.26 0.26 l-8.74 0 c-0.16 0 -0.26 -0.12 -0.26 0.08 z M105.14000000000001 20 c-0.08 0 -0.16 -0.04 -0.2 -0.12 c-0.06 -0.06 -0.06 -0.16 -0.04 -0.24 l4.66 -11.98 c0.04 -0.1 0.14 -0.16 0.24 -0.16 l2.68 0 c0.1 0 0.2 0.06 0.24 0.16 l4.58 11.98 c0.02 0.08 0.02 0.16 -0.04 0.24 c-0.04 0.08 -0.12 0.12 -0.2 0.12 l-2.78 0 c-0.1 0 -0.2 -0.06 -0.24 -0.16 l-0.74 -1.84 l-4.5 0.02 l-0.74 1.82 c-0.04 0.1 -0.14 0.16 -0.24 0.16 l-2.68 0 z M109.62 15.5 l2.88 0 l-1.44 -4.24 z M122.14 20 c-1.56 0 -2.9 -0.66 -3.96 -1.96 c-0.08 -0.08 -0.08 -0.2 -0.02 -0.3 l1.2 -1.92 c0.04 -0.06 0.12 -0.12 0.2 -0.12 s0.16 0.02 0.2 0.08 c0.38 0.42 0.78 0.74 1.18 0.94 c0.38 0.22 0.74 0.32 1.06 0.32 c0.38 0 0.64 -0.1 0.84 -0.32 c0.2 -0.24 0.3 -0.56 0.3 -1 l0 -1.3 c-0.02 0 -0.02 0 -0.02 0.02 l0 -6.8 c0 -0.14 0.12 -0.26 0.26 -0.26 l2.62 0 c0.14 0 0.26 0.12 0.26 0.26 l0 8.14 c0 1.32 -0.38 2.36 -1.1 3.1 c-0.74 0.74 -1.74 1.12 -3.02 1.12 z M128.32 20 c-0.08 0 -0.16 -0.04 -0.2 -0.12 c-0.06 -0.06 -0.06 -0.16 -0.04 -0.24 l4.66 -11.98 c0.04 -0.1 0.14 -0.16 0.24 -0.16 l2.68 0 c0.1 0 0.2 0.06 0.24 0.16 l4.58 11.98 c0.02 0.08 0.02 0.16 -0.04 0.24 c-0.04 0.08 -0.12 0.12 -0.2 0.12 l-2.78 0 c-0.1 0 -0.2 -0.06 -0.24 -0.16 l-0.74 -1.84 l-4.5 0.02 l-0.74 1.82 c-0.04 0.1 -0.14 0.16 -0.24 0.16 l-2.68 0 z M132.8 15.5 l2.88 0 l-1.44 -4.24 z M147.96 20 c-0.16 0 -0.26 -0.12 -0.26 -0.26 l0 -11.98 c0 -0.14 0.1 -0.26 0.26 -0.26 l4.54 0 c1.2 0 2.3 0.26 3.26 0.8 c0.96 0.52 1.7 1.26 2.24 2.22 c0.52 0.94 0.8 2.02 0.8 3.22 c0 1.22 -0.28 2.3 -0.82 3.24 c-0.54 0.96 -1.3 1.7 -2.28 2.22 c-0.96 0.54 -2.08 0.8 -3.3 0.8 l-4.44 0 z M150.8 17.2 l1.76 0 c0.58 0 1.12 -0.14 1.58 -0.42 c0.46 -0.3 0.84 -0.7 1.1 -1.22 s0.4 -1.12 0.4 -1.8 c0 -0.66 -0.14 -1.28 -0.42 -1.8 c-0.28 -0.54 -0.66 -0.94 -1.14 -1.24 c-0.48 -0.28 -1.04 -0.44 -1.64 -0.44 l-1.64 0 l0 6.92 z M166.02 20 c-1.08 0 -1.86 -0.22 -2.68 -0.66 c-0.8 -0.44 -1.44 -1.06 -1.88 -1.88 c-0.44 -0.8 -0.66 -1.76 -0.66 -2.86 l0 -7.04 c0 -0.14 0.12 -0.24 0.26 -0.24 l2.6 0 c0.14 0 0.24 0.1 0.24 0.24 l0 7.04 c0 0.8 0.22 1.42 0.64 1.86 s0.8 0.66 1.5 0.66 s1.06 -0.22 1.46 -0.64 c0.4 -0.44 0.6 -1.08 0.6 -1.88 l0 -7.04 c0 -0.14 0.12 -0.24 0.26 -0.24 l2.6 0 c0.14 0 0.26 0.1 0.26 0.24 l0 7.04 c0 1.1 -0.22 2.06 -0.66 2.86 c-0.42 0.82 -1.06 1.44 -1.86 1.88 s-1.6 0.66 -2.68 0.66 z M173.48 20 c-0.14 0 -0.26 -0.12 -0.26 -0.26 l0 -11.98 c0 -0.14 0.12 -0.26 0.26 -0.26 l2.6 0 c0.14 0 0.26 0.12 0.26 0.26 l0 9.36 l4.5 0 c0.14 0 0.26 0.12 0.26 0.26 l0 2.36 c0 0.14 -0.12 0.26 -0.26 0.26 l-7.36 0 z M188.32 20 c-1.08 0 -1.86 -0.22 -2.68 -0.66 c-0.8 -0.44 -1.44 -1.06 -1.88 -1.88 c-0.44 -0.8 -0.66 -1.76 -0.66 -2.86 l0 -7.04 c0 -0.14 0.12 -0.24 0.26 -0.24 l2.6 0 c0.14 0 0.24 0.1 0.24 0.24 l0 7.04 c0 0.8 0.22 1.42 0.64 1.86 s0.8 0.66 1.5 0.66 s1.06 -0.22 1.46 -0.64 c0.4 -0.44 0.6 -1.08 0.6 -1.88 l0 -7.04 c0 -0.14 0.12 -0.24 0.26 -0.24 l2.6 0 c0.14 0 0.26 0.1 0.26 0.24 l0 7.04 c0 1.1 -0.22 2.06 -0.66 2.86 c-0.42 0.82 -1.06 1.44 -1.86 1.88 s-1.6 0.66 -2.68 0.66 z"></path></g></svg>